<svg xmlns="http://www.w3.org/2000/svg" viewBox="0 0 32 32" fill="none">
  <path d="M27.2 6.4A26.2 26.2 0 0 0 20.9 4.5a.1.1 0 0 0-.1.05 18.3 18.3 0 0 0-.8 1.65 24.2 24.2 0 0 0-7.3 0 16.7 16.7 0 0 0-.82-1.65.1.1 0 0 0-.1-.05A26.1 26.1 0 0 0 5.5 6.4a.09.09 0 0 0-.04.04C2.08 11.4 1.17 16.25 1.62 21.04a.11.11 0 0 0 .04.07 26.3 26.3 0 0 0 7.93 4.01.1.1 0 0 0 .11-.04c.61-.84 1.16-1.72 1.62-2.65a.1.1 0 0 0-.05-.14 17.3 17.3 0 0 1-2.48-1.18.1.1 0 0 1-.01-.17c.17-.12.33-.25.49-.37a.1.1 0 0 1 .1-.01c5.2 2.38 10.84 2.38 15.98 0a.1.1 0 0 1 .1.01c.16.13.33.25.49.37a.1.1 0 0 1-.01.17c-.79.46-1.62.85-2.48 1.18a.1.1 0 0 0-.06.14c.48.93 1.02 1.81 1.62 2.65a.1.1 0 0 0 .11.04 26.2 26.2 0 0 0 7.95-4.01.1.1 0 0 0 .04-.07c.52-5.4-.87-10.2-3.68-14.6a.08.08 0 0 0-.04-.04ZM11.14 18.15c-1.57 0-2.87-1.44-2.87-3.22s1.27-3.22 2.87-3.22c1.61 0 2.9 1.45 2.87 3.22 0 1.78-1.27 3.22-2.87 3.22Zm10.6 0c-1.58 0-2.87-1.44-2.87-3.22s1.27-3.22 2.87-3.22c1.61 0 2.9 1.45 2.87 3.22 0 1.78-1.26 3.22-2.87 3.22Z" fill="white"/>
</svg>
